<svg xmlns="http://www.w3.org/2000/svg" width="74" height="74" viewBox="0 0 74 74">
    <defs>
        <clipPath id="wyb8kon39a">
            <path data-name="사각형 6192" style="fill:none" d="M0 0h69.83v51.705H0z"/>
        </clipPath>
    </defs>
    <g data-name="그룹 8249">
        <g data-name="그룹 7922">
            <g data-name="그룹 7921" transform="translate(2 12.177)" style="clip-path:url(#wyb8kon39a)">
                <path data-name="패스 13366" d="M54.836 0H28.245a5.207 5.207 0 0 0-5.2 5.2v41.3a5.208 5.208 0 0 0 5.2 5.2h26.591a5.208 5.208 0 0 0 5.2-5.2V5.2a5.207 5.207 0 0 0-5.2-5.2m2.779 46.5a2.782 2.782 0 0 1-2.779 2.779H38.261v-7.72h6.556v3.86a1.211 1.211 0 1 0 2.422 0v-5.068a1.212 1.212 0 0 0-1.211-1.211H37.05a1.212 1.212 0 0 0-1.211 1.211v8.931h-7.594a2.782 2.782 0 0 1-2.779-2.782V5.2a2.782 2.782 0 0 1 2.779-2.779h26.591A2.782 2.782 0 0 1 57.614 5.2z" transform="translate(-6.626)" style="fill:#fff"/>
                <path data-name="패스 13367" d="M54.011 15.278a1.211 1.211 0 0 0 0-2.422H35.586a1.211 1.211 0 1 0 0 2.422z" transform="translate(-9.883 -3.696)" style="fill:#aaff3d"/>
                <path data-name="패스 13368" d="M54.011 25.459a1.211 1.211 0 0 0 0-2.422H35.586a1.211 1.211 0 1 0 0 2.422z" transform="translate(-9.883 -6.623)" style="fill:#fff"/>
                <path data-name="패스 13369" d="M54.011 35.637a1.211 1.211 0 0 0 0-2.422H35.586a1.211 1.211 0 1 0 0 2.422z" transform="translate(-9.883 -9.55)" style="fill:#fff"/>
                <path data-name="패스 13370" d="M54.011 45.817a1.211 1.211 0 0 0 0-2.422H35.586a1.211 1.211 0 1 0 0 2.422z" transform="translate(-9.883 -12.477)" style="fill:#fff"/>
                <path data-name="패스 13371" d="M86.987 60.438v-4.565l.418-.116a7.407 7.407 0 0 0 5.141-7.3c0-2.212-1.159-5.75-2.151-8.109-2.425-5.765-4.019-5.765-4.619-5.765s-2.009 0-4.506 5.753c-1.094 2.523-2.264 5.981-2.264 8.121a7.406 7.406 0 0 0 5.141 7.3l.418.116v4.565a1.212 1.212 0 1 0 2.423 0m-5.56-11.979c0-2.7 2.455-8.609 3.939-10.748l.46-.663.471.655c1.4 1.954 3.824 8.005 3.824 10.756 0 2.815-1.95 5.106-4.347 5.106s-4.348-2.291-4.348-5.106" transform="translate(-22.716 -9.944)" style="fill:#fff"/>
                <path data-name="패스 13372" d="M7.981 60.438v-4.565l.418-.116a7.407 7.407 0 0 0 5.141-7.3c0-2.212-1.159-5.75-2.151-8.109-2.425-5.762-4.019-5.762-4.619-5.762s-2.011 0-4.506 5.753C1.169 42.861 0 46.319 0 48.459a7.406 7.406 0 0 0 5.141 7.3l.418.116v4.565a1.212 1.212 0 1 0 2.423 0m-5.56-11.981c0-2.7 2.455-8.611 3.939-10.749l.46-.663.471.655c1.405 1.954 3.825 8.006 3.825 10.757 0 2.815-1.95 5.106-4.347 5.106s-4.348-2.291-4.348-5.106" transform="translate(0 -9.944)" style="fill:#fff"/>
            </g>
        </g>
        <path data-name="사각형 6383" style="fill:none" d="M0 0h74v74H0z"/>
    </g>
</svg>
