<svg xmlns="http://www.w3.org/2000/svg" width="74" height="74" viewBox="0 0 74 74">
    <defs>
        <clipPath id="12tdp1p69a">
            <path data-name="사각형 6191" style="fill:none" d="M0 0h62.774v55.404H0z"/>
        </clipPath>
    </defs>
    <g data-name="그룹 8250">
        <g data-name="그룹 7920">
            <g data-name="그룹 7919" transform="translate(6 10.371)" style="clip-path:url(#12tdp1p69a)">
                <path data-name="패스 13364" d="M61.141 15.266 47.6 1.73a5.6 5.6 0 0 0-7.9 0L31.438 10l-8.366-8.368a5.6 5.6 0 0 0-7.9 0L1.637 15.17a5.584 5.584 0 0 0 0 7.9l8.463 8.461-1.742 1.739a4.44 4.44 0 0 0 2.942 7.581l.479.02.021.48a4.425 4.425 0 0 0 4.241 4.239l.479.021.021.479a4.423 4.423 0 0 0 4.236 4.238l.479.02.021.479a4.443 4.443 0 0 0 7.581 2.946l1.742-1.737 1.737 1.736a5.594 5.594 0 0 0 7.9 0l13.537-13.538a5.593 5.593 0 0 0 0-7.9l-.9-.9 8.267-8.27a5.594 5.594 0 0 0 0-7.9m-48.07 22.723a2.221 2.221 0 1 1-3.14-3.143l2.432-2.432a2.276 2.276 0 0 1 3.143 0 2.222 2.222 0 0 1 0 3.142zm4.738 4.738a2.222 2.222 0 0 1-3.791-1.572 2.206 2.206 0 0 1 .65-1.57L17.1 37.15a2.278 2.278 0 0 1 3.142 0 2.224 2.224 0 0 1 0 3.143zm4.74 4.738a2.228 2.228 0 0 1-1.57.634 2.206 2.206 0 0 1-1.571-3.777l2.434-2.432a2.276 2.276 0 0 1 3.143 0 2.221 2.221 0 0 1 0 3.142zm7.173 2.305L27.288 52.2a2.229 2.229 0 0 1-1.57.635 2.233 2.233 0 0 1-1.572-.637 2.22 2.22 0 0 1 0-3.139l2.434-2.433a2.278 2.278 0 0 1 3.143 0 2.22 2.22 0 0 1 0 3.141M52.2 38.661 51.06 39.8l-7.433-7.434a1.139 1.139 0 0 0-1.573 0 1.113 1.113 0 0 0 0 1.574l7.433 7.433-3.268 3.269-7.434-7.432a1.113 1.113 0 1 0-1.574 1.573l7.434 7.434-3.267 3.268-7.434-7.433a1.113 1.113 0 1 0-1.573 1.574l7.429 7.433-1.136 1.141a3.368 3.368 0 0 1-4.755 0l-1.853-1.851.149-.33a4.436 4.436 0 0 0-3.857-6.256l-.479-.021-.022-.478a4.424 4.424 0 0 0-4.238-4.24l-.48-.02-.021-.479a4.424 4.424 0 0 0-4.238-4.239l-.48-.02-.021-.48a4.438 4.438 0 0 0-6.255-3.858l-.329.147-3-3L23.168 12.7a1.111 1.111 0 0 0 0-1.573 1.138 1.138 0 0 0-1.573 0L7.217 25.5l-4.008-4.01a3.36 3.36 0 0 1 0-4.751L16.745 3.207a3.367 3.367 0 0 1 4.754 0l8.392 8.393-8.107 8.1a4.584 4.584 0 0 0 6.484 6.483l8.1-8.106L52.2 33.909a3.365 3.365 0 0 1 0 4.752m7.367-17.068-8.267 8.27-14.14-14.141a1.1 1.1 0 0 0-.786-.326 1.106 1.106 0 0 0-.787.326L26.7 24.614a2.416 2.416 0 0 1-3.337 0 2.363 2.363 0 0 1 0-3.336l9.026-9.026a1.079 1.079 0 0 0 .147-.185l.069-.085 3-3 14.669 14.674a1.14 1.14 0 0 0 1.573 0 1.112 1.112 0 0 0 0-1.573L37.173 7.408l4.1-4.1a3.37 3.37 0 0 1 4.755 0l13.54 13.531a3.368 3.368 0 0 1 0 4.755" style="fill:#fff"/>
                <path data-name="패스 13365" d="M10.843 26.05a1.575 1.575 0 1 0 1.575 1.576 1.577 1.577 0 0 0-1.575-1.576" transform="translate(-3.203 -9.004)" style="fill:#aaff3d"/>
            </g>
        </g>
        <path data-name="사각형 6384" style="fill:none" d="M0 0h74v74H0z"/>
    </g>
</svg>
