<svg xmlns="http://www.w3.org/2000/svg" width="74" height="74" viewBox="0 0 74 74">
    <defs>
        <clipPath id="642jkvjuja">
            <path data-name="사각형 6190" style="fill:none" d="M0 0h62.158v59.455H0z"/>
        </clipPath>
    </defs>
    <g data-name="그룹 8251">
        <g data-name="그룹 7918">
            <g data-name="그룹 7917" transform="translate(6 8.564)" style="clip-path:url(#642jkvjuja)">
                <path data-name="패스 13361" d="m57.6 34.91.287-1.1h1.9a1.112 1.112 0 1 0 0-2.225h-1.324l.838-3.219a1.112 1.112 0 1 0-2.152-.561l-.984 3.78H54l-1.344-3.865a.205.205 0 0 1-.027-.054c-.016-.037-.031-.073-.05-.107s-.036-.062-.056-.091a.991.991 0 0 0-.065-.088.935.935 0 0 0-.069-.075.834.834 0 0 0-.08-.073.948.948 0 0 0-.086-.064 1.245 1.245 0 0 0-.089-.054.9.9 0 0 0-.11-.051l-.1-.037a.983.983 0 0 0-.112-.026c-.038-.007-.071-.014-.1-.018s-.069 0-.106 0a1.031 1.031 0 0 0-.11 0c-.031 0-.063.01-.1.016s-.082.016-.121.028l-.088.034a1.038 1.038 0 0 0-.113.052.964.964 0 0 0-.087.053 1.103 1.103 0 0 0-.304.305.873.873 0 0 0-.054.089.976.976 0 0 0-.049.106l-.035.076-1.336 3.843h-2.167l-.984-3.78a1.112 1.112 0 1 0-2.152.561l.838 3.219H43.42a1.112 1.112 0 1 0 0 2.225h1.9l.287 1.1a1.125 1.125 0 0 0 1.355.8 1.1 1.1 0 0 0 .614-.426l.424-.589.423.587a1.109 1.109 0 0 0 .535.4A1.127 1.127 0 0 0 50.377 35l.414-1.19h1.625l.413 1.188a1.13 1.13 0 0 0 1.416.685 1.1 1.1 0 0 0 .533-.4l.423-.586.425.584a1.1 1.1 0 0 0 .614.427 1.12 1.12 0 0 0 1.356-.8" transform="translate(-14.623 -9.322)" style="fill:#aaff3d"/>
                <path data-name="패스 13362" d="M48.608 60.49c1.065-1.737 3.536-5.366 5.925-8.876 2.989-4.391 5.787-8.5 6.565-9.935 1.642-3.027 1.017-4.943.5-5.816a3.85 3.85 0 0 0-3.372-1.825 4.928 4.928 0 0 0-1.354.194c-2.384.681-5.75 5.2-9.582 10.583-1.082 1.521-2.017 2.836-2.607 3.528a1.648 1.648 0 0 1-1.149.444l-.088-.006a1.706 1.706 0 0 0-.293-.03h-1.366c-10.838 0-11.883-.806-12.081-1.779a1.312 1.312 0 0 1 .264-1.185c1.16-1.419 5.1-2.169 11.406-2.169h1.377a3.833 3.833 0 0 0 0-7.665H25.531a5.526 5.526 0 0 0-3.269 1.25l-7.785 7.006-.348-.291a3.053 3.053 0 0 0-1.945-.723 3.013 3.013 0 0 0-.873.13L2.154 46.1A3.046 3.046 0 0 0 .13 49.89l5.8 19.171a3.059 3.059 0 0 0 2.914 2.159 3 3 0 0 0 .877-.131l9.153-2.769a3 3 0 0 0 2.142-2.92v-.476L45.581 62.4a4.438 4.438 0 0 0 3.027-1.906m-29.9 5.3a.805.805 0 0 1-.476.393L9.076 68.96a.793.793 0 0 1-.232.035.819.819 0 0 1-.386-.1.8.8 0 0 1-.394-.482L2.26 49.244a.825.825 0 0 1 .54-1.012l9.155-2.77a.817.817 0 0 1 1.013.54l5.8 19.185a.8.8 0 0 1-.063.609m1.658-3.045L15.5 46.288l8.243-7.419a3.387 3.387 0 0 1 1.786-.684h17.22a1.608 1.608 0 0 1 0 3.216h-1.377c-7.389 0-11.438.921-13.127 2.987a3.536 3.536 0 0 0-.723 3.035c.552 2.717 2.591 3.563 14.262 3.563h1.294l.04.006a3.849 3.849 0 0 0 3.256-1.2c.658-.773 1.662-2.186 2.725-3.681 3.935-5.531 6.863-9.3 8.38-9.733a1.879 1.879 0 0 1 2.2.629c.473.8.275 2.113-.541 3.617-.722 1.33-3.611 5.574-6.4 9.678-2.543 3.734-4.927 7.236-6.025 9.03a2.228 2.228 0 0 1-1.36.857z" transform="translate(0 -11.765)" style="fill:#fff"/>
                <path data-name="패스 13363" d="M66.017 24.079a14.02 14.02 0 0 0-1.069-5.2c-2-4.892-7.049-8.26-11.114-9.781l-.681-.255 2.768-5.54a2.349 2.349 0 0 0-.058-2.285A2.365 2.365 0 0 0 53.8 0H37.934a2.363 2.363 0 0 0-2.065 1.021 2.375 2.375 0 0 0-.031 2.339l2.742 5.487-.68.253c-4.066 1.521-9.12 4.889-11.114 9.781a13.352 13.352 0 0 0 .27 11.08 1 1 0 0 0 1.309.461.98.98 0 0 0 .461-1.309 11.434 11.434 0 0 1-.222-9.492c1.888-4.633 7.105-7.937 11.438-9.156l.177-.025h5.21a.982.982 0 1 0 0-1.963H40.59l-3.256-6.514H54.4l-3.529 7.058a.981.981 0 0 0 .625 1.387c4.259 1.143 9.717 4.514 11.634 9.214a12.064 12.064 0 0 1 .924 4.471.982.982 0 1 0 1.963-.014" transform="translate(-8.887)" style="fill:#fff"/>
            </g>
        </g>
        <path data-name="사각형 6385" style="fill:none" d="M0 0h74v74H0z"/>
    </g>
</svg>
