<svg xmlns="http://www.w3.org/2000/svg" width="74" height="74" viewBox="0 0 74 74">
    <defs>
        <clipPath id="xsk6ch7tga">
            <path data-name="사각형 6195" style="fill:none" d="M0 0h54.451v50.568H0z"/>
        </clipPath>
    </defs>
    <g data-name="그룹 8248">
        <g data-name="그룹 7928">
            <g data-name="그룹 7927" transform="translate(10 12.177)" style="clip-path:url(#xsk6ch7tga)">
                <path data-name="패스 13381" d="M54.451 5.009A5.016 5.016 0 0 0 49.44 0H5.009A5.015 5.015 0 0 0 0 5.009V38.2a5.015 5.015 0 0 0 5.009 5.009h21.065v5.055h-8.888a1.152 1.152 0 1 0 0 2.3h20.078a1.152 1.152 0 1 0 0-2.3h-8.886v-5.056H49.44a5.016 5.016 0 0 0 5.011-5.008zm-2.3 33.19A2.709 2.709 0 0 1 49.44 40.9H5.009A2.708 2.708 0 0 1 2.3 38.2v-3.088h42.037a1.152 1.152 0 0 0 0-2.3H2.3V5.009a2.707 2.707 0 0 1 2.7-2.7h44.44a2.708 2.708 0 0 1 2.707 2.7z" style="fill:#fff"/>
                <path data-name="패스 13382" d="M41.867 57.357a1.179 1.179 0 1 0 1.179 1.18 1.181 1.181 0 0 0-1.179-1.18" transform="translate(-14.641 -20.64)" style="fill:#fff"/>
                <path data-name="패스 13383" d="M49.5 17.658a1.155 1.155 0 0 0-1.627-.081l-5.275 4.776-2.183-2a1.154 1.154 0 0 0-1.586.027l-7.03 6.9-5.576-5.11a1.158 1.158 0 0 0-1.568.01l-7.68 7.22a1.153 1.153 0 0 0-.051 1.629 1.179 1.179 0 0 0 1.629.051l6.9-6.487 5.59 5.128a1.154 1.154 0 0 0 1.586-.028l7.03-6.9 2.152 1.972a1.148 1.148 0 0 0 1.552.005l6.053-5.482a1.154 1.154 0 0 0 .08-1.627" transform="translate(-5.978 -6.218)" style="fill:#aaff3d"/>
            </g>
        </g>
        <path data-name="사각형 6382" style="fill:none" d="M0 0h74v74H0z"/>
    </g>
</svg>
