<svg xmlns="http://www.w3.org/2000/svg" width="74" height="74" viewBox="0 0 74 74">
    <defs>
        <clipPath id="3b87k28epa">
            <path data-name="사각형 6196" style="fill:none" d="M0 0h60v56.369H0z"/>
        </clipPath>
    </defs>
    <g data-name="그룹 8247">
        <g data-name="그룹 7930">
            <g data-name="그룹 7929" transform="translate(7 9)" style="clip-path:url(#3b87k28epa)">
                <path data-name="패스 13384" d="M28.586 50.144a1.206 1.206 0 0 0-1.2 1.2v2.873a1.2 1.2 0 0 0 2.409 0v-2.868a1.206 1.206 0 0 0-1.2-1.2" transform="translate(-9.058 -16.589)" style="fill:#aaff3d"/>
                <path data-name="패스 13385" d="M39.019 42.95a1.206 1.206 0 0 0-1.2 1.2v7.687a1.2 1.2 0 0 0 2.409 0v-7.682a1.206 1.206 0 0 0-1.2-1.2" transform="translate(-12.51 -14.209)" style="fill:#aaff3d"/>
                <path data-name="패스 13386" d="M49.453 45.349a1.206 1.206 0 0 0-1.2 1.2v6.083a1.2 1.2 0 0 0 2.409 0v-6.078a1.206 1.206 0 0 0-1.2-1.2" transform="translate(-15.962 -15.003)" style="fill:#aaff3d"/>
                <path data-name="패스 13387" d="M61.09 33.363a1.2 1.2 0 1 0-2.409 0v14.909a1.2 1.2 0 1 0 2.409 0z" transform="translate(-19.413 -10.639)" style="fill:#aaff3d"/>
                <path data-name="패스 13388" d="M60 9.912A3.312 3.312 0 0 0 56.691 6.6H31.2V1.2a1.2 1.2 0 1 0-2.408 0v5.4H3.307A3.312 3.312 0 0 0 0 9.912v1.757a3.312 3.312 0 0 0 3.308 3.308h1.585v28.265a4.419 4.419 0 0 0 4.415 4.415H28.8v6.3h-9.273a1.2 1.2 0 1 0 0 2.408h20.945a1.2 1.2 0 1 0 0-2.408H31.2v-6.3h19.49a4.419 4.419 0 0 0 4.41-4.415V14.977h1.586A3.312 3.312 0 0 0 60 11.669zm-2.408 1.757a.9.9 0 0 1-.9.9H53.9a1.191 1.191 0 0 0-1.17 1.477l.025.107-.025.108a1.191 1.191 0 0 0-.035.272v28.71a2.008 2.008 0 0 1-2.006 2.006H9.308A2.008 2.008 0 0 1 7.3 43.242V14.977h36.945a1.2 1.2 0 0 0 0-2.409H3.307a.9.9 0 0 1-.9-.9V9.912a.9.9 0 0 1 .9-.9h53.384a.9.9 0 0 1 .9.9z" style="fill:#fff"/>
            </g>
        </g>
        <path data-name="사각형 6386" style="fill:none" d="M0 0h74v74H0z"/>
    </g>
</svg>
