<svg xmlns="http://www.w3.org/2000/svg" width="159.586" height="23.184" viewBox="0 0 159.586 23.184">
    <defs>
        <clipPath id="towbqu48qa">
            <path data-name="사각형 6435" style="fill:none" d="M0 0h159.586v23.184H0z"/>
        </clipPath>
    </defs>
    <path data-name="사각형 6434" transform="translate(79.416 9.433)" style="fill:#fff" d="M0 0h10.888v5.528H0z"/>
    <g data-name="그룹 8299">
        <g data-name="그룹 8298" style="clip-path:url(#towbqu48qa)">
            <path data-name="패스 13728" d="M101.143 1.7H90.309a2.993 2.993 0 0 0-2.988 2.99v16.129a2.993 2.993 0 0 0 2.988 2.991h10.834a5.139 5.139 0 0 0 5.131-5.136V6.834a5.139 5.139 0 0 0-5.131-5.134m-8.689 8.671V7.414a.269.269 0 0 1 .269-.268h8.148a.27.27 0 0 1 .27.268v2.955a.27.27 0 0 1-.27.268h-8.147a.269.269 0 0 1-.269-.268m0 4.877a.269.269 0 0 1 .269-.268h8.148a.269.269 0 0 1 .27.268V18.2a.27.27 0 0 1-.27.269h-8.148a.269.269 0 0 1-.269-.269z" transform="translate(-32.19 -.626)" style="fill:#fff"/>
            <path data-name="패스 13729" d="M24.4 20.706 22.655 9.151 19.157 20.9c-.68 1.736-1.735 2.271-4.344 2.271h-1.842l-2.908-14.02-3.6 12.027c-.814 1.884-1.852 1.994-3.353 1.994H0L8.475 0c3.8 0 5.49.98 5.889 3.639l2.159 10.234L21.067 0c4.046 0 5.573 1.63 5.884 3.606l2.98 19.567H28c-1.264 0-3.075.318-3.594-2.467" style="fill:#80af4d"/>
            <path data-name="패스 13730" d="M67.592 7.093h-2.2a.633.633 0 0 1-.631-.631V1.367a.633.633 0 0 1 .631-.631h2.2a.633.633 0 0 1 .631.631v5.094a.633.633 0 0 1-.631.631" transform="translate(-23.872 -.271)" style="fill:#80af4d"/>
            <path data-name="패스 13731" d="M66.322 1.7H64.88v5.423h.746a.269.269 0 0 1 .268.27v10.722a.269.269 0 0 1-.268.269h-7.313a.269.269 0 0 1-.268-.269V7.393a.269.269 0 0 1 .268-.27h.746V1.7h-1.443a5.139 5.139 0 0 0-5.123 5.143v11.823a5.139 5.139 0 0 0 5.123 5.144h8.706a5.139 5.139 0 0 0 5.123-5.144V6.841A5.139 5.139 0 0 0 66.322 1.7" transform="translate(-19.351 -.626)" style="fill:#fff"/>
            <path data-name="패스 13732" d="M241.7 12.827a2.852 2.852 0 0 0-2.822-2.858h-10.209a.271.271 0 0 1-.269-.269V7.3a.271.271 0 0 1 .271-.271h7.1a.271.271 0 0 1 .271.271v1.443h5.658V6.475a5.159 5.159 0 0 0-5.123-5.183h-8.705a5.16 5.16 0 0 0-5.123 5.183v6.357a2.851 2.851 0 0 0 2.673 2.846h10.335a.272.272 0 0 1 .271.272v2.4a.272.272 0 0 1-.271.272h-7.1a.272.272 0 0 1-.27-.272V16.9h-5.641v1.317a5.16 5.16 0 0 0 5.123 5.183h8.705a5.159 5.159 0 0 0 5.123-5.183v-5.283z" transform="translate(-82.113 -.476)" style="fill:#fff"/>
            <path data-name="패스 13733" d="M197.663 1.292h-6.915a3.01 3.01 0 0 0-3.01 3V20.4a3.01 3.01 0 0 0 3.01 3h6.915a9.025 9.025 0 0 0 9.028-9v-4.11a9.025 9.025 0 0 0-9.028-9m3.524 8.936v4.241A3.546 3.546 0 0 1 197.638 18h-4.122a.273.273 0 0 1-.275-.272V6.964a.273.273 0 0 1 .275-.271h4.122a3.546 3.546 0 0 1 3.549 3.536" transform="translate(-69.208 -.476)" style="fill:#fff"/>
            <path data-name="패스 13734" d="M162.665 1.3h-6.592c-2.711 0-4.355 1.941-4.917 5.187l-2.21 16.924h6.8l.841-7.576a.273.273 0 0 1 .271-.275h5.342a.273.273 0 0 1 .271.275l1.263 7.576h6.694l-2.845-16.922c-.365-2.852-2.206-5.187-4.918-5.187m-1.381 5.8.631 2.986a.273.273 0 0 1-.271.274h-4.469a.273.273 0 0 1-.271-.274l.631-2.986a.273.273 0 0 1 .271-.275h3.207a.273.273 0 0 1 .271.275" transform="translate(-54.907 -.48)" style="fill:#fff"/>
        </g>
    </g>
</svg>
